<svg xmlns="http://www.w3.org/2000/svg" viewBox="0 0 48 48"><path d="M5.0494,42.9506C1.3663,39.2675,0,33.2675,0,24S1.3663,8.7325,5.0494,5.0494,14.7325,0,24,0,39.2675,1.3663,42.9506,5.0494,48,14.7325,48,24s-1.3663,15.2675-5.0494,18.9506S33.2675,48,24,48,8.7325,46.6337,5.0494,42.9506Z" fill="#f1f8ff"/><path d="M20.632,32.11a28.7917,28.7917,0,0,0,5.7441,10.0631,18.3038,18.3038,0,0,0,11.8555-6.6266,28.9837,28.9837,0,0,1-13.3311.3329A5.7179,5.7179,0,0,1,20.632,32.11Z" fill="#1269ff"/><path d="M24,42.3259a18.5168,18.5168,0,0,0,2.3761-.1525A28.7917,28.7917,0,0,1,20.632,32.11a5.7185,5.7185,0,0,1,1.1009-5.5676,28.7568,28.7568,0,0,0-6.755,13.4123A18.2425,18.2425,0,0,0,24,42.3259Z" fill="#5c9dff"/><path d="M6.1827,28.3056A18.36,18.36,0,0,0,14.9779,39.955a28.7545,28.7545,0,0,1,6.7672-13.4273,5.72,5.72,0,0,1,5.4084-1.8417,28.8671,28.8671,0,0,0-20.9708,3.62Z" fill="#9ec6ff"/><path d="M27.1535,24.686a28.8671,28.8671,0,0,0-20.9708,3.62A18.3571,18.3571,0,0,1,12.39,9.82,28.9187,28.9187,0,0,1,31.4328,28.4184q.0411.1173.0769.237-.0378-.1187-.0769-.237A5.7333,5.7333,0,0,0,27.1535,24.686Z" fill="#d1e3ff"/><path d="M41.4227,20.6942c0-8.11-6.7575-15.02-17.4238-15.02a18.2505,18.2505,0,0,0-11.61,4.1465,28.899,28.899,0,0,1,19.12,18.8349c.1677.5272.3206,1.0882.4584,1.6281A9.6444,9.6444,0,0,0,41.4227,20.6942Z" fill="#fff"/><path d="M31.088,30.5065c-.1341-.5258-.3476-1.2906-.51-1.8024A4.8332,4.8332,0,0,0,26.9792,25.57a4.49,4.49,0,0,0-.9368-.091,4.7956,4.7956,0,0,0-3.6193,1.6424,4.5212,4.5212,0,0,0-1.1876,3.1644,4.4443,4.4443,0,0,0,.2506,1.5367,4.8256,4.8256,0,0,0,3.5994,3.1751,28.0758,28.0758,0,0,0,12.916-.3222l.7424-.1959.3852,1.3918-.1981.2438a19.2042,19.2042,0,0,1-12.4391,6.9522,19.83,19.83,0,0,1-2.4919.16,19.5313,19.5313,0,0,1-9.4664-2.4882A19.2615,19.2615,0,0,1,5.3064,28.5167,19.6785,19.6785,0,0,1,4.7727,24a19.1912,19.1912,0,0,1,7.046-14.877A19.529,19.529,0,0,1,24,4.7727c11.077,0,18.3251,7.2312,18.3251,15.9213A10.5456,10.5456,0,0,1,31.9806,31.1846l-.7157.0154Zm1.2037-2.3613A29.2968,29.2968,0,0,0,14.3062,9.5093,16.94,16.94,0,0,1,24,6.5753c10.2516,0,16.5224,6.5861,16.5224,14.1187a8.737,8.737,0,0,1-7.88,8.6458C32.5264,28.9215,32.398,28.48,32.2917,28.1452ZM6.5753,24a17.3821,17.3821,0,0,1,6.018-13.1726,27.644,27.644,0,0,1,16.1144,13.41,6.5093,6.5093,0,0,0-1.375-.4352,29.7683,29.7683,0,0,0-20.52,3.0947A17.1707,17.1707,0,0,1,6.5753,24Zm15.5167.9861a6.6379,6.6379,0,0,0-1.0225.945,30.1718,30.1718,0,0,0-6.6893,12.6,17.4576,17.4576,0,0,1-7.1549-9.7991,27.4166,27.4166,0,0,1,14.0075-3.7583Q21.6654,24.9732,22.092,24.9861ZM24,41.4246a16.9469,16.9469,0,0,1-7.9994-1.9381,27.4011,27.4011,0,0,1,3.4786-8.4549,6.9659,6.9659,0,0,0,.2961,1.3588,30.1094,30.1094,0,0,0,4.8073,9.0252C24.39,41.4218,24.1965,41.4248,24,41.4246Zm2.7352-.2132a27.5546,27.5546,0,0,1-3.32-4.8592,6.5737,6.5737,0,0,0,1.3033.41,29.8087,29.8087,0,0,0,10.857.2622A17.3578,17.3578,0,0,1,26.7352,41.2114Z" fill="#003dad" fill-rule="evenodd"/></svg>